<?xml version="1.0" encoding="iso-8859-1"?>
<!-- Generator: Adobe Illustrator 19.0.0, SVG Export Plug-In . SVG Version: 6.00 Build 0)  -->
<svg version="1.1" id="Capa_1" xmlns="http://www.w3.org/2000/svg" xmlns:xlink="http://www.w3.org/1999/xlink" x="0px" y="0px"
	 viewBox="0 0 464 464" style="enable-background:new 0 0 464 464;" xml:space="preserve">
<g>
	<path style="fill:#454545;" d="M286.96,360c-20.79,0.029-40.672-8.514-54.96-23.616c-16.605,17.422-40.472,25.963-64.36,23.032
		l1.984-15.88c20.203,2.536,40.306-5.394,53.336-21.04c4.358-4.993,11.939-5.507,16.932-1.148c0.408,0.356,0.792,0.74,1.148,1.148
		c13.031,15.66,33.148,23.592,53.36,21.04l1.984,15.88C293.258,359.808,290.11,360.003,286.96,360L286.96,360z"/>
	<path style="fill:#454545;" d="M0,159.024v107.544c0.002,18.04,13.435,33.257,31.336,35.496L172.6,319.72
		c12.09,1.512,24.118-3.233,31.92-12.592c12.652-15.177,35.211-17.224,50.388-4.572c1.659,1.383,3.189,2.913,4.572,4.572
		c7.802,9.359,19.83,14.104,31.92,12.592l141.264-17.656c17.901-2.239,31.334-17.456,31.336-35.496V159.024
		c0.003-17.802-13.088-32.895-30.712-35.408L298.52,104.36c-1.677-0.24-3.37-0.36-5.064-0.36H170.544
		c-1.694,0-3.387,0.12-5.064,0.36L30.712,123.616C13.088,126.129-0.003,141.222,0,159.024L0,159.024z"/>
</g>
<path style="fill:#168DE2;" d="M286.96,288c-1.116,0.001-2.174-0.494-2.888-1.352c-23.956-28.756-66.687-32.648-95.443-8.693
	c-3.155,2.628-6.064,5.538-8.693,8.693c-0.717,0.858-1.778,1.353-2.896,1.352L35.304,270.312c-1.887-0.238-3.303-1.842-3.304-3.744
	V159.024c0.005-1.875,1.384-3.462,3.24-3.728l134.768-19.256h123.448L428.8,155.296c1.856,0.266,3.235,1.853,3.24,3.728v107.544
	c-0.001,1.902-1.417,3.506-3.304,3.744L287.432,288H286.96z"/>
<g>
</g>
<g>
</g>
<g>
</g>
<g>
</g>
<g>
</g>
<g>
</g>
<g>
</g>
<g>
</g>
<g>
</g>
<g>
</g>
<g>
</g>
<g>
</g>
<g>
</g>
<g>
</g>
<g>
</g>
</svg>
