<?xml version="1.0" encoding="iso-8859-1"?>
<!-- Generator: Adobe Illustrator 19.0.0, SVG Export Plug-In . SVG Version: 6.00 Build 0)  -->
<svg version="1.1" id="Capa_1" xmlns="http://www.w3.org/2000/svg" xmlns:xlink="http://www.w3.org/1999/xlink" x="0px" y="0px"
	 viewBox="0 0 467.818 467.818" style="enable-background:new 0 0 467.818 467.818;" xml:space="preserve">
<path style="fill:#D95354;" d="M209.269,216c-8.837,0-16,7.163-16,16v36.976c0.54,50.781-34.343,95.091-83.832,106.488
	c-35.249,7.311-60.434,38.49-60.168,74.488c-0.062,7.808-6.432,14.092-14.24,14.048h-4.752c-7.39-0.183-13.232-6.321-13.049-13.711
	c0.006-0.257,0.02-0.513,0.041-0.769v-6.12c0.684-48.615,35.617-89.976,83.432-98.784c35.366-7.137,60.742-38.297,60.568-74.376V80
	c0-44.183,35.817-80,80-80s80,35.817,80,80v136c-0.002,41.856,16.625,81.998,46.224,111.592l15.84,15.84
	c27.826,27.671,45.173,64.151,49.072,103.2c0.753,8.804-5.774,16.552-14.578,17.305c-1.579,0.135-3.169,0.035-4.718-0.297
	c-7.009-1.748-12.105-7.796-12.64-15c-3.407-31.262-17.429-60.411-39.728-82.584l-15.872-15.824
	c-31.976-31.98-51.488-74.323-55.024-119.408c-0.614-8.334-7.539-14.792-15.896-14.824h-0.68c-8.837,0-16,7.163-16,16v41.976
	c-0.712,31.977,6.479,63.636,20.936,92.168c14.055,26.201,8.167,58.635-14.2,78.224c-26.029,22.899-62.54,29.631-95.024,17.52
	c-28.774-11.148-49.514-36.673-54.536-67.12l-8.592-48.72c-2.681-15.288-13.733-27.769-28.584-32.28
	c-6.989-1.92-11.875-8.217-12-15.464c-0.026-8.836,7.116-16.021,15.952-16.048c1.493-0.004,2.979,0.2,4.416,0.608
	c26.827,7.749,46.901,30.098,51.736,57.6l8.92,50.6c2.808,17.029,13.783,31.601,29.376,39c22.362,10.312,48.699,6.484,67.2-9.768
	c10.941-10.016,13.798-26.129,6.968-39.296c-16.132-32.83-24.536-68.917-24.568-105.496V232
	C225.269,223.163,218.105,216,209.269,216L209.269,216z"/>
<g>
	<circle style="fill:#4B4B4B;" cx="205.269" cy="100" r="20"/>
	<circle style="fill:#4B4B4B;" cx="277.269" cy="100" r="20"/>
</g>
<g>
	<path style="fill:#D95354;" d="M57.021,264h-7.144c-26.845,0-48.608-21.763-48.608-48.608l0,0V176c0-8.837,7.163-16,16-16
		s16,7.163,16,16v39.384c0,9.177,7.439,16.616,16.616,16.616h7.44c14.343-0.24,27.472-8.102,34.456-20.632
		c12.869-21.884,36.348-35.335,61.736-35.368h7.752v32h-8.056c-14.343,0.24-27.472,8.102-34.456,20.632
		C105.888,250.516,82.409,263.967,57.021,264z"/>
	<path style="fill:#D95354;" d="M465.565,327.2c-3.023,8.256-12.167,12.499-20.423,9.475c-0.457-0.167-0.905-0.355-1.345-0.563
		c-37.675-18.62-67.496-50.038-84.128-88.632l-8.48-19.76c-5.115-11.979-16.894-19.743-29.92-19.72v-32
		c25.822-0.02,49.164,15.375,59.312,39.12l8.472,19.744c13.541,31.435,37.78,57.057,68.416,72.32
		c7.438,3.595,10.938,12.243,8.096,20L465.565,327.2z"/>
</g>
<g>
</g>
<g>
</g>
<g>
</g>
<g>
</g>
<g>
</g>
<g>
</g>
<g>
</g>
<g>
</g>
<g>
</g>
<g>
</g>
<g>
</g>
<g>
</g>
<g>
</g>
<g>
</g>
<g>
</g>
</svg>
