<?xml version="1.0" encoding="iso-8859-1"?>
<!-- Generator: Adobe Illustrator 19.0.0, SVG Export Plug-In . SVG Version: 6.00 Build 0)  -->
<svg version="1.1" id="Capa_1" xmlns="http://www.w3.org/2000/svg" xmlns:xlink="http://www.w3.org/1999/xlink" x="0px" y="0px"
	 viewBox="0 0 464 464" style="enable-background:new 0 0 464 464;" xml:space="preserve">
<g>
	<path style="fill:#919191;" d="M216,0h32v64h-32V0z"/>
	<path style="fill:#919191;" d="M328,8h40v56h-40V8z"/>
	<path style="fill:#919191;" d="M104,8h40v56h-40V8z"/>
	<path style="fill:#919191;" d="M136,106.496V64H96v42.496C58.453,115.7,32.037,149.342,32,188v252c0,13.255,10.745,24,24,24l0,0
		h120c13.255,0,24-10.745,24-24l0,0V188C199.963,149.342,173.547,115.7,136,106.496z"/>
	<path style="fill:#919191;" d="M368,106.496V64h-40v42.496c-37.547,9.204-63.963,42.846-64,81.504v252c0,13.255,10.745,24,24,24
		l0,0h120c13.255,0,24-10.745,24-24l0,0V188C431.963,149.342,405.547,115.7,368,106.496z"/>
</g>
<g>
	<path style="fill:#5A5A5A;" d="M32,312h400v48H32V312z"/>
	<path style="fill:#5A5A5A;" d="M32,208h400v48H32V208z"/>
</g>
<g>
	<path style="fill:#454545;" d="M264,408h168l0,0v32c0,13.255-10.745,24-24,24l0,0H288c-13.255,0-24-10.745-24-24l0,0V408L264,408z"
		/>
	<path style="fill:#454545;" d="M32,408h168l0,0v32c0,13.255-10.745,24-24,24l0,0H56c-13.255,0-24-10.745-24-24l0,0V408L32,408z"/>
</g>
<path style="fill:#5A5A5A;" d="M40,32h384v32H40V32z"/>
<g>
	<path style="fill:#454545;" d="M16,16h24l0,0v64l0,0H16c-4.418,0-8-3.582-8-8V24C8,19.582,11.582,16,16,16z"/>
	<path style="fill:#454545;" d="M424,16h24c4.418,0,8,3.582,8,8v48c0,4.418-3.582,8-8,8h-24l0,0V16L424,16z"/>
</g>
<circle cx="232" cy="232" r="8"/>
<circle cx="232" cy="336" r="8"/>
<g>
</g>
<g>
</g>
<g>
</g>
<g>
</g>
<g>
</g>
<g>
</g>
<g>
</g>
<g>
</g>
<g>
</g>
<g>
</g>
<g>
</g>
<g>
</g>
<g>
</g>
<g>
</g>
<g>
</g>
</svg>
