<?xml version="1.0" encoding="iso-8859-1"?>
<!-- Generator: Adobe Illustrator 19.0.0, SVG Export Plug-In . SVG Version: 6.00 Build 0)  -->
<svg version="1.1" id="Capa_1" xmlns="http://www.w3.org/2000/svg" xmlns:xlink="http://www.w3.org/1999/xlink" x="0px" y="0px"
	 viewBox="0 0 446.42 446.42" style="enable-background:new 0 0 446.42 446.42;" xml:space="preserve">
<path style="fill:#FCB94E;" d="M145.231,384.504l-14.528-6.776c-29.611-13.792-63.805-13.792-93.416,0l-14.528,6.776
	c-8.009,3.733-17.528,0.266-21.261-7.744c-1.146-2.458-1.648-5.167-1.459-7.872L19.927,83.792
	c1.256-17.923,16.161-31.822,34.128-31.824h59.88c17.967-0.001,32.872,13.9,34.12,31.824l19.896,285.096
	c0.615,8.815-6.032,16.46-14.848,17.075C150.398,386.151,147.689,385.649,145.231,384.504L145.231,384.504z"/>
<path id="SVGCleanerId_0" style="fill:#168DE2;" d="M43.999,203.968l5.872-88.072c1.196-17.968,16.12-31.93,34.128-31.928
	c18.008-0.002,32.932,13.96,34.128,31.928l5.872,88.072H43.999z"/>
<g>
	<path id="SVGCleanerId_0_1_" style="fill:#168DE2;" d="M43.999,203.968l5.872-88.072c1.196-17.968,16.12-31.93,34.128-31.928
		c18.008-0.002,32.932,13.96,34.128,31.928l5.872,88.072H43.999z"/>
</g>
<path style="fill:#1171B5;" d="M46.127,171.968h75.736l-1.072-16h-73.6L46.127,171.968z"/>
<g>
	<path style="fill:#D37F25;" d="M116.035,228.535l15.951-1.139l8.001,112.003l-15.951,1.139L116.035,228.535z"/>
	<path style="fill:#D37F25;" d="M27.852,339.303l7.972-111.951l15.944,1.135l-7.972,111.951L27.852,339.303z"/>
	<path style="fill:#D37F25;" d="M43.991,251.968h80v16h-80L43.991,251.968z"/>
</g>
<path style="fill:#FCB94E;" d="M432.871,318.624l-15.84,2.456c-32.268,5.012-60.671,24.028-77.6,51.952l-8.304,13.712
	c-4.58,7.557-14.42,9.969-21.976,5.389c-2.32-1.406-4.244-3.379-5.592-5.733l-142.04-248c-8.935-15.589-4.28-35.435,10.656-45.424
	l49.76-33.312c14.944-9.98,35.06-6.703,46.064,7.504l175.064,225.84c5.415,6.983,4.144,17.034-2.839,22.449
	C438.081,317.118,435.551,318.208,432.871,318.624L432.871,318.624z"/>
<path style="fill:#168DE2;" d="M248.327,224.904l-44.112-76.456c-8.993-15.601-4.355-35.502,10.608-45.52
	c14.965-10.013,35.13-6.711,46.12,7.552l53.864,69.92L248.327,224.904z"/>
<path style="fill:#1171B5;" d="M224.287,183.224l8.016,13.896L295.239,155l-9.784-12.704L224.287,183.224z"/>
<g>
	<path style="fill:#D37F25;" d="M321.843,205.227l12.629-9.824l68.947,88.628l-12.629,9.824L321.843,205.227z"/>
	<path style="fill:#D37F25;" d="M254.992,248.802l13.897-7.932l55.695,97.578l-13.897,7.932L254.992,248.802z"/>
	<path style="fill:#D37F25;" d="M275.031,264.807l66.468-44.52l8.908,13.3l-66.468,44.52L275.031,264.807z"/>
</g>
<g>
</g>
<g>
</g>
<g>
</g>
<g>
</g>
<g>
</g>
<g>
</g>
<g>
</g>
<g>
</g>
<g>
</g>
<g>
</g>
<g>
</g>
<g>
</g>
<g>
</g>
<g>
</g>
<g>
</g>
</svg>
